<?xml version="1.0" encoding="utf-8"?><!-- Uploaded to: SVG Repo, www.svgrepo.com, Generator: SVG Repo Mixer Tools -->
<svg width="800px" height="800px" viewBox="-0.5 0 25 25" fill="none" xmlns="http://www.w3.org/2000/svg">
<path d="M7.35001 16.3C7.16001 16.27 6.96999 16.24 6.76999 16.24C5.16999 16.24 3.85999 17.53 3.85999 19.12C3.85999 20.71 5.15999 22 6.76999 22C6.96999 22 7.17001 21.98 7.35001 21.94C8.68001 21.68 9.66998 20.51 9.66998 19.12" stroke="#0F0F0F" stroke-miterlimit="10" stroke-linecap="round" stroke-linejoin="round"/>
<path d="M17.81 14C17.62 13.97 17.4299 13.94 17.2299 13.94C15.6299 13.94 14.3199 15.23 14.3199 16.82C14.3199 18.41 15.6199 19.7 17.2299 19.7C18.3299 19.7 19.2999 19.09 19.7899 18.18C20.0099 17.78 20.14 17.32 20.14 16.82" stroke="#0F0F0F" stroke-miterlimit="10" stroke-linecap="round" stroke-linejoin="round"/>
<path d="M9.67993 19.12V9.16C9.67993 8.93 9.83992 8.72 10.0699 8.67L19.5299 6.59C19.8399 6.52 20.1399 6.76 20.1399 7.08V16.82" stroke="#0F0F0F" stroke-miterlimit="10" stroke-linecap="round" stroke-linejoin="round"/>
<path d="M9.67993 6.74V5.3L20.1399 3V4.44" stroke="#0F0F0F" stroke-miterlimit="10" stroke-linecap="round" stroke-linejoin="round"/>
</svg>